<?xml version="1.0" encoding="UTF-8" standalone="no"?>
<!DOCTYPE svg PUBLIC "-//W3C//DTD SVG 1.1//EN"
 "http://www.w3.org/Graphics/SVG/1.1/DTD/svg11.dtd">
<!-- Generated by graphviz version 15.1.1 (20260805.0921)
 -->
<!-- Title: G Pages: 1 -->
<svg width="882pt" height="411pt"
 viewBox="0.00 0.00 882.00 411.00" xmlns="http://www.w3.org/2000/svg" xmlns:xlink="http://www.w3.org/1999/xlink">
<g id="graph0" class="graph" transform="scale(1 1) rotate(0) translate(4 407.13)">
<title>G</title><style>.edge>path:hover{stroke-width:8}</style>
<polygon fill="white" stroke="none" points="-4,4 -4,-407.13 878.38,-407.13 878.38,4 -4,4"/>
<!-- dupont_qspr -->
<g id="node1" class="node">
<title>dupont_qspr</title><style>.edge>path:hover{stroke-width:8}</style>
<polygon fill="blue" stroke="black" points="342.26,-108 273.01,-108 273.01,-72 342.26,-72 342.26,-108"/>
<text xml:space="preserve" text-anchor="middle" x="307.63" y="-86.12" font-family="Helvetica,sans-Serif" font-size="10.00" fill="white">dupont_qspr</text>
</g>
<!-- dupont_qspr_config -->
<g id="node2" class="node">
<title>dupont_qspr_config</title><style>.edge>path:hover{stroke-width:8}</style>
<polygon fill="blue" stroke="black" points="327.63,-331.13 273.63,-331.13 273.63,-295.13 327.63,-295.13 327.63,-331.13"/>
<text xml:space="preserve" text-anchor="middle" x="300.63" y="-309.26" font-family="Helvetica,sans-Serif" font-size="10.00" fill="white">config</text>
</g>
<!-- dupont_qspr&#45;&gt;dupont_qspr_config -->
<g id="edge1" class="edge">
<title>dupont_qspr&#45;&gt;dupont_qspr_config</title><style>.edge>path:hover{stroke-width:8}</style>
<path fill="none" stroke="black" d="M322.01,-108.2C346.08,-139.19 389.55,-206.14 364.63,-259.13 358.68,-271.78 348.07,-282.45 337.18,-290.82"/>
<polygon fill="blue" stroke="black" points="335.41,-287.78 329.29,-296.43 339.47,-293.48 335.41,-287.78"/>
</g>
<!-- dupont_qspr_spine -->
<g id="node16" class="node">
<title>dupont_qspr_spine</title><style>.edge>path:hover{stroke-width:8}</style>
<polygon fill="blue" stroke="black" points="300.63,-180 246.63,-180 246.63,-144 300.63,-144 300.63,-180"/>
<text xml:space="preserve" text-anchor="middle" x="273.63" y="-158.12" font-family="Helvetica,sans-Serif" font-size="10.00" fill="white">spine</text>
</g>
<!-- dupont_qspr&#45;&gt;dupont_qspr_spine -->
<g id="edge32" class="edge">
<title>dupont_qspr&#45;&gt;dupont_qspr_spine</title><style>.edge>path:hover{stroke-width:8}</style>
<path fill="none" stroke="black" d="M299.23,-108.3C295.52,-115.93 291.08,-125.08 286.94,-133.6"/>
<polygon fill="blue" stroke="black" points="283.82,-132.01 282.6,-142.53 290.12,-135.07 283.82,-132.01"/>
</g>
<!-- dupont_qspr_contracts -->
<g id="node3" class="node">
<title>dupont_qspr_contracts</title><style>.edge>path:hover{stroke-width:8}</style>
<ellipse fill="#f91010" stroke="black" cx="300.63" cy="-385.13" rx="33.43" ry="18"/>
<text xml:space="preserve" text-anchor="middle" x="300.63" y="-381.26" font-family="Helvetica,sans-Serif" font-size="10.00" fill="#ffffff">contracts</text>
</g>
<!-- dupont_qspr_config&#45;&gt;dupont_qspr_contracts -->
<g id="edge9" class="edge">
<title>dupont_qspr_config&#45;&gt;dupont_qspr_contracts</title><style>.edge>path:hover{stroke-width:8}</style>
<path fill="none" stroke="black" d="M300.63,-331.44C300.63,-338.73 300.63,-347.41 300.63,-355.6"/>
<polygon fill="blue" stroke="black" points="297.13,-355.52 300.63,-365.52 304.13,-355.52 297.13,-355.52"/>
</g>
<!-- dupont_qspr_data -->
<g id="node4" class="node">
<title>dupont_qspr_data</title><style>.edge>path:hover{stroke-width:8}</style>
<polygon fill="blue" stroke="black" points="858.63,-36 804.63,-36 804.63,0 858.63,0 858.63,-36"/>
<text xml:space="preserve" text-anchor="middle" x="831.63" y="-14.12" font-family="Helvetica,sans-Serif" font-size="10.00" fill="white">data</text>
</g>
<!-- dupont_qspr_data_build -->
<g id="node5" class="node">
<title>dupont_qspr_data_build</title><style>.edge>path:hover{stroke-width:8}</style>
<polygon fill="blue" stroke="black" points="826.63,-108 768.63,-108 768.63,-72 826.63,-72 826.63,-108"/>
<text xml:space="preserve" text-anchor="middle" x="797.63" y="-86.12" font-family="Helvetica,sans-Serif" font-size="10.00" fill="white">data.build</text>
</g>
<!-- dupont_qspr_data&#45;&gt;dupont_qspr_data_build -->
<g id="edge16" class="edge">
<title>dupont_qspr_data&#45;&gt;dupont_qspr_data_build</title><style>.edge>path:hover{stroke-width:8}</style>
<path fill="none" stroke="black" d="M823.23,-36.3C819.52,-43.93 815.08,-53.08 810.94,-61.6"/>
<polygon fill="blue" stroke="black" points="807.82,-60.01 806.6,-70.53 814.12,-63.07 807.82,-60.01"/>
</g>
<!-- dupont_qspr_data_sources -->
<g id="node8" class="node">
<title>dupont_qspr_data_sources</title><style>.edge>path:hover{stroke-width:8}</style>
<ellipse fill="#ce3b3b" stroke="black" cx="831.63" cy="-237.57" rx="42.75" ry="18"/>
<text xml:space="preserve" text-anchor="middle" x="831.63" y="-233.69" font-family="Helvetica,sans-Serif" font-size="10.00" fill="#ffffff">data.sources</text>
</g>
<!-- dupont_qspr_data&#45;&gt;dupont_qspr_data_sources -->
<g id="edge19" class="edge">
<title>dupont_qspr_data&#45;&gt;dupont_qspr_data_sources</title><style>.edge>path:hover{stroke-width:8}</style>
<path fill="none" stroke="black" d="M838.41,-36.17C848.2,-62.56 865.21,-114.87 865.63,-161"/>
</g>
<!-- dupont_qspr_data_build&#45;&gt;dupont_qspr_config -->
<g id="edge2" class="edge">
<title>dupont_qspr_data_build&#45;&gt;dupont_qspr_config</title><style>.edge>path:hover{stroke-width:8}</style>
<path fill="none" stroke="black" d="M768.19,-93.12C722.97,-97.37 634.74,-109.7 568.63,-144 558.57,-149.22 555.68,-151.42 549.63,-161"/>
<path fill="none" stroke="black" d="M549.63,-163C529.98,-194.12 533.99,-207.34 511.63,-236.57"/>
</g>
<!-- dupont_qspr_data_build&#45;&gt;dupont_qspr_contracts -->
<g id="edge10" class="edge">
<title>dupont_qspr_data_build&#45;&gt;dupont_qspr_contracts</title><style>.edge>path:hover{stroke-width:8}</style>
<path fill="none" stroke="black" d="M549.63,-163C532.17,-190.65 531.41,-209.42 549.63,-236.57"/>
</g>
<!-- dupont_qspr_data_curate_mp -->
<g id="node6" class="node">
<title>dupont_qspr_data_curate_mp</title><style>.edge>path:hover{stroke-width:8}</style>
<polygon fill="blue" stroke="black" points="661.38,-180 577.88,-180 577.88,-144 661.38,-144 661.38,-180"/>
<text xml:space="preserve" text-anchor="middle" x="619.63" y="-158.12" font-family="Helvetica,sans-Serif" font-size="10.00" fill="white">data.curate_mp</text>
</g>
<!-- dupont_qspr_data_build&#45;&gt;dupont_qspr_data_curate_mp -->
<g id="edge17" class="edge">
<title>dupont_qspr_data_build&#45;&gt;dupont_qspr_data_curate_mp</title><style>.edge>path:hover{stroke-width:8}</style>
<path fill="none" stroke="black" d="M768.24,-102.56C742.16,-112.82 703.43,-128.04 672.05,-140.38"/>
<polygon fill="blue" stroke="black" points="671.16,-136.98 663.13,-143.89 673.72,-143.49 671.16,-136.98"/>
</g>
<!-- dupont_qspr_data_download -->
<g id="node7" class="node">
<title>dupont_qspr_data_download</title><style>.edge>path:hover{stroke-width:8}</style>
<polygon fill="blue" stroke="black" points="837.13,-180 758.13,-180 758.13,-144 837.13,-144 837.13,-180"/>
<text xml:space="preserve" text-anchor="middle" x="797.63" y="-158.12" font-family="Helvetica,sans-Serif" font-size="10.00" fill="white">data.download</text>
</g>
<!-- dupont_qspr_data_build&#45;&gt;dupont_qspr_data_download -->
<g id="edge18" class="edge">
<title>dupont_qspr_data_build&#45;&gt;dupont_qspr_data_download</title><style>.edge>path:hover{stroke-width:8}</style>
<path fill="none" stroke="black" d="M797.63,-108.3C797.63,-115.59 797.63,-124.27 797.63,-132.46"/>
<polygon fill="blue" stroke="black" points="794.13,-132.38 797.63,-142.38 801.13,-132.38 794.13,-132.38"/>
</g>
<!-- dupont_qspr_data_build&#45;&gt;dupont_qspr_data_sources -->
<g id="edge20" class="edge">
<title>dupont_qspr_data_build&#45;&gt;dupont_qspr_data_sources</title><style>.edge>path:hover{stroke-width:8}</style>
<path fill="none" stroke="black" d="M827.12,-106.74C845.39,-118.84 865.42,-137.45 865.63,-161"/>
<path fill="none" stroke="black" d="M865.63,-163C865.79,-179.82 858.38,-196.97 850.45,-210.48"/>
<polygon fill="blue" stroke="black" points="847.6,-208.43 845.2,-218.75 853.51,-212.18 847.6,-208.43"/>
</g>
<!-- dupont_qspr_data_standardize -->
<g id="node9" class="node">
<title>dupont_qspr_data_standardize</title><style>.edge>path:hover{stroke-width:8}</style>
<ellipse fill="#c43131" stroke="black" cx="624.63" cy="-237.57" rx="46.85" ry="21.57"/>
<text xml:space="preserve" text-anchor="middle" x="624.63" y="-239.32" font-family="Helvetica,sans-Serif" font-size="10.00" fill="#ffffff">data.</text>
<text xml:space="preserve" text-anchor="middle" x="624.63" y="-228.07" font-family="Helvetica,sans-Serif" font-size="10.00" fill="#ffffff">standardize</text>
</g>
<!-- dupont_qspr_data_build&#45;&gt;dupont_qspr_data_standardize -->
<g id="edge22" class="edge">
<title>dupont_qspr_data_build&#45;&gt;dupont_qspr_data_standardize</title><style>.edge>path:hover{stroke-width:8}</style>
<path fill="none" stroke="black" d="M549.63,-163C536.51,-183.78 557.98,-203.07 581.26,-216.68"/>
<polygon fill="blue" stroke="black" points="579.48,-219.69 589.93,-221.42 582.84,-213.55 579.48,-219.69"/>
</g>
<!-- dupont_qspr_data_union -->
<g id="node10" class="node">
<title>dupont_qspr_data_union</title><style>.edge>path:hover{stroke-width:8}</style>
<polygon fill="blue" stroke="black" points="740.13,-180 679.13,-180 679.13,-144 740.13,-144 740.13,-180"/>
<text xml:space="preserve" text-anchor="middle" x="709.63" y="-158.12" font-family="Helvetica,sans-Serif" font-size="10.00" fill="white">data.union</text>
</g>
<!-- dupont_qspr_data_build&#45;&gt;dupont_qspr_data_union -->
<g id="edge25" class="edge">
<title>dupont_qspr_data_build&#45;&gt;dupont_qspr_data_union</title><style>.edge>path:hover{stroke-width:8}</style>
<path fill="none" stroke="black" d="M775.88,-108.3C765.2,-116.8 752.14,-127.19 740.45,-136.49"/>
<polygon fill="blue" stroke="black" points="738.27,-133.75 732.62,-142.71 742.63,-139.22 738.27,-133.75"/>
</g>
<!-- dupont_qspr_data_curate_mp&#45;&gt;dupont_qspr_data_standardize -->
<g id="edge23" class="edge">
<title>dupont_qspr_data_curate_mp&#45;&gt;dupont_qspr_data_standardize</title><style>.edge>path:hover{stroke-width:8}</style>
<path fill="none" stroke="black" d="M620.82,-180.43C621.3,-187.6 621.88,-196.13 622.44,-204.35"/>
<polygon fill="blue" stroke="black" points="618.93,-204.34 623.1,-214.08 625.92,-203.87 618.93,-204.34"/>
</g>
<!-- dupont_qspr_data_download&#45;&gt;dupont_qspr_data_sources -->
<g id="edge21" class="edge">
<title>dupont_qspr_data_download&#45;&gt;dupont_qspr_data_sources</title><style>.edge>path:hover{stroke-width:8}</style>
<path fill="none" stroke="black" d="M805.69,-180.43C809.66,-189.02 814.53,-199.56 818.98,-209.19"/>
<polygon fill="blue" stroke="black" points="815.74,-210.53 823.11,-218.14 822.1,-207.59 815.74,-210.53"/>
</g>
<!-- dupont_qspr_data_standardize&#45;&gt;dupont_qspr_contracts -->
<g id="edge11" class="edge">
<title>dupont_qspr_data_standardize&#45;&gt;dupont_qspr_contracts</title><style>.edge>path:hover{stroke-width:8}</style>
<path fill="none" stroke="black" d="M631.02,-259.26C634.64,-275.41 636.38,-297.49 624.63,-312.13"/>
</g>
<!-- dupont_qspr_data_union&#45;&gt;dupont_qspr_contracts -->
<g id="edge12" class="edge">
<title>dupont_qspr_data_union&#45;&gt;dupont_qspr_contracts</title><style>.edge>path:hover{stroke-width:8}</style>
<path fill="none" stroke="black" d="M707.16,-180.43C703.7,-200.6 696.01,-234.21 680.63,-259.13 662.63,-288.3 646.07,-285.4 624.63,-312.13"/>
</g>
<!-- dupont_qspr_data_union&#45;&gt;dupont_qspr_data_standardize -->
<g id="edge24" class="edge">
<title>dupont_qspr_data_union&#45;&gt;dupont_qspr_data_standardize</title><style>.edge>path:hover{stroke-width:8}</style>
<path fill="none" stroke="black" d="M689.49,-180.43C679.08,-189.44 666.18,-200.61 654.62,-210.61"/>
<polygon fill="blue" stroke="black" points="652.53,-207.79 647.26,-216.98 657.11,-213.08 652.53,-207.79"/>
</g>
<!-- dupont_qspr_features -->
<g id="node11" class="node">
<title>dupont_qspr_features</title><style>.edge>path:hover{stroke-width:8}</style>
<polygon fill="blue" stroke="black" points="74.63,-108 20.63,-108 20.63,-72 74.63,-72 74.63,-108"/>
<text xml:space="preserve" text-anchor="middle" x="47.63" y="-86.12" font-family="Helvetica,sans-Serif" font-size="10.00" fill="white">features</text>
</g>
<!-- dupont_qspr_features_cache -->
<g id="node12" class="node">
<title>dupont_qspr_features_cache</title><style>.edge>path:hover{stroke-width:8}</style>
<ellipse fill="#ce3b3b" stroke="black" cx="47.63" cy="-237.57" rx="47.63" ry="18"/>
<text xml:space="preserve" text-anchor="middle" x="47.63" y="-233.69" font-family="Helvetica,sans-Serif" font-size="10.00" fill="#ffffff">features.cache</text>
</g>
<!-- dupont_qspr_features&#45;&gt;dupont_qspr_features_cache -->
<g id="edge26" class="edge">
<title>dupont_qspr_features&#45;&gt;dupont_qspr_features_cache</title><style>.edge>path:hover{stroke-width:8}</style>
<path fill="none" stroke="black" d="M31.59,-108.15C23.62,-117.88 14.81,-130.73 10.63,-144 5.83,-159.26 6.06,-164.67 10.63,-180 13.88,-190.9 19.97,-201.66 26.29,-210.82"/>
<polygon fill="blue" stroke="black" points="23.46,-212.87 32.21,-218.84 29.09,-208.72 23.46,-212.87"/>
</g>
<!-- dupont_qspr_features_descriptors -->
<g id="node13" class="node">
<title>dupont_qspr_features_descriptors</title><style>.edge>path:hover{stroke-width:8}</style>
<polygon fill="blue" stroke="black" points="157.63,-180 93.63,-180 93.63,-144 157.63,-144 157.63,-180"/>
<text xml:space="preserve" text-anchor="middle" x="125.63" y="-163.75" font-family="Helvetica,sans-Serif" font-size="10.00" fill="white">features.</text>
<text xml:space="preserve" text-anchor="middle" x="125.63" y="-152.5" font-family="Helvetica,sans-Serif" font-size="10.00" fill="white">descriptors</text>
</g>
<!-- dupont_qspr_features&#45;&gt;dupont_qspr_features_descriptors -->
<g id="edge29" class="edge">
<title>dupont_qspr_features&#45;&gt;dupont_qspr_features_descriptors</title><style>.edge>path:hover{stroke-width:8}</style>
<path fill="none" stroke="black" d="M66.91,-108.3C76.29,-116.72 87.73,-126.98 98.01,-136.21"/>
<polygon fill="blue" stroke="black" points="95.4,-138.57 105.18,-142.64 100.07,-133.36 95.4,-138.57"/>
</g>
<!-- dupont_qspr_features_encoders -->
<g id="node14" class="node">
<title>dupont_qspr_features_encoders</title><style>.edge>path:hover{stroke-width:8}</style>
<polygon fill="blue" stroke="black" points="75.51,-180 19.76,-180 19.76,-144 75.51,-144 75.51,-180"/>
<text xml:space="preserve" text-anchor="middle" x="47.63" y="-163.75" font-family="Helvetica,sans-Serif" font-size="10.00" fill="white">features.</text>
<text xml:space="preserve" text-anchor="middle" x="47.63" y="-152.5" font-family="Helvetica,sans-Serif" font-size="10.00" fill="white">encoders</text>
</g>
<!-- dupont_qspr_features&#45;&gt;dupont_qspr_features_encoders -->
<g id="edge30" class="edge">
<title>dupont_qspr_features&#45;&gt;dupont_qspr_features_encoders</title><style>.edge>path:hover{stroke-width:8}</style>
<path fill="none" stroke="black" d="M47.63,-108.3C47.63,-115.59 47.63,-124.27 47.63,-132.46"/>
<polygon fill="blue" stroke="black" points="44.13,-132.38 47.63,-142.38 51.13,-132.38 44.13,-132.38"/>
</g>
<!-- dupont_qspr_features_descriptors&#45;&gt;dupont_qspr_config -->
<g id="edge3" class="edge">
<title>dupont_qspr_features_descriptors&#45;&gt;dupont_qspr_config</title><style>.edge>path:hover{stroke-width:8}</style>
<path fill="none" stroke="black" d="M119.33,-180.39C114.43,-197.37 110.69,-222.62 125.63,-236.57"/>
</g>
<!-- dupont_qspr_features_descriptors&#45;&gt;dupont_qspr_features_cache -->
<g id="edge27" class="edge">
<title>dupont_qspr_features_descriptors&#45;&gt;dupont_qspr_features_cache</title><style>.edge>path:hover{stroke-width:8}</style>
<path fill="none" stroke="black" d="M107.15,-180.43C96.88,-190.12 83.96,-202.3 72.78,-212.84"/>
<polygon fill="blue" stroke="black" points="70.63,-210.07 65.75,-219.48 75.43,-215.16 70.63,-210.07"/>
</g>
<!-- dupont_qspr_features_encoders&#45;&gt;dupont_qspr_config -->
<g id="edge4" class="edge">
<title>dupont_qspr_features_encoders&#45;&gt;dupont_qspr_config</title><style>.edge>path:hover{stroke-width:8}</style>
<path fill="none" stroke="black" d="M66.49,-180.3C77.65,-190.6 92.02,-203.97 104.63,-216 114.08,-225.02 116.08,-227.65 125.63,-236.57"/>
<path fill="none" stroke="black" d="M125.63,-238.57C164.55,-274.9 224.04,-294.67 262.64,-304.32"/>
<polygon fill="blue" stroke="black" points="261.41,-307.62 271.95,-306.53 263.03,-300.81 261.41,-307.62"/>
</g>
<!-- dupont_qspr_features_encoders&#45;&gt;dupont_qspr_features_cache -->
<g id="edge28" class="edge">
<title>dupont_qspr_features_encoders&#45;&gt;dupont_qspr_features_cache</title><style>.edge>path:hover{stroke-width:8}</style>
<path fill="none" stroke="black" d="M47.63,-180.43C47.63,-188.68 47.63,-198.74 47.63,-208.05"/>
<polygon fill="blue" stroke="black" points="44.13,-207.74 47.63,-217.74 51.13,-207.74 44.13,-207.74"/>
</g>
<!-- dupont_qspr_skeleton -->
<g id="node15" class="node">
<title>dupont_qspr_skeleton</title><style>.edge>path:hover{stroke-width:8}</style>
<polygon fill="blue" stroke="black" points="245.63,-255.57 191.63,-255.57 191.63,-219.57 245.63,-219.57 245.63,-255.57"/>
<text xml:space="preserve" text-anchor="middle" x="218.63" y="-233.69" font-family="Helvetica,sans-Serif" font-size="10.00" fill="white">skeleton</text>
</g>
<!-- dupont_qspr_skeleton&#45;&gt;dupont_qspr_config -->
<g id="edge5" class="edge">
<title>dupont_qspr_skeleton&#45;&gt;dupont_qspr_config</title><style>.edge>path:hover{stroke-width:8}</style>
<path fill="none" stroke="black" d="M238.06,-256C248.48,-265.35 261.49,-277.02 272.95,-287.3"/>
<polygon fill="blue" stroke="black" points="270.43,-289.74 280.21,-293.81 275.11,-284.53 270.43,-289.74"/>
</g>
<!-- dupont_qspr_skeleton&#45;&gt;dupont_qspr_contracts -->
<g id="edge13" class="edge">
<title>dupont_qspr_skeleton&#45;&gt;dupont_qspr_contracts</title><style>.edge>path:hover{stroke-width:8}</style>
<path fill="none" stroke="black" d="M191.87,-255.9C174.05,-269.83 155.29,-290.57 163.63,-312.13"/>
</g>
<!-- dupont_qspr_spine&#45;&gt;dupont_qspr_config -->
<g id="edge6" class="edge">
<title>dupont_qspr_spine&#45;&gt;dupont_qspr_config</title><style>.edge>path:hover{stroke-width:8}</style>
<path fill="none" stroke="black" d="M276.78,-180.4C281.37,-205.77 289.96,-253.2 295.48,-283.69"/>
<polygon fill="blue" stroke="black" points="292.01,-284.14 297.23,-293.36 298.89,-282.89 292.01,-284.14"/>
</g>
<!-- dupont_qspr_spine&#45;&gt;dupont_qspr_contracts -->
<g id="edge14" class="edge">
<title>dupont_qspr_spine&#45;&gt;dupont_qspr_contracts</title><style>.edge>path:hover{stroke-width:8}</style>
<path fill="none" stroke="black" d="M163.63,-314.13C178.08,-351.51 222.66,-369.12 257.08,-377.29"/>
<polygon fill="blue" stroke="black" points="256.31,-380.71 266.82,-379.4 257.79,-373.87 256.31,-380.71"/>
<path fill="none" stroke="black" d="M246.25,-171.91C225.54,-180.08 198.13,-194.26 182.63,-216 157.35,-251.47 147.92,-271.51 163.63,-312.13"/>
</g>
<!-- dupont_qspr_spine&#45;&gt;dupont_qspr_skeleton -->
<g id="edge31" class="edge">
<title>dupont_qspr_spine&#45;&gt;dupont_qspr_skeleton</title><style>.edge>path:hover{stroke-width:8}</style>
<path fill="none" stroke="black" d="M260.6,-180.43C253.95,-189.32 245.73,-200.31 238.34,-210.21"/>
<polygon fill="blue" stroke="black" points="235.66,-207.94 232.48,-218.05 241.27,-212.13 235.66,-207.94"/>
</g>
<!-- dupont_qspr_tracking -->
<g id="node20" class="node">
<title>dupont_qspr_tracking</title><style>.edge>path:hover{stroke-width:8}</style>
<polygon fill="blue" stroke="black" points="355.63,-255.57 301.63,-255.57 301.63,-219.57 355.63,-219.57 355.63,-255.57"/>
<text xml:space="preserve" text-anchor="middle" x="328.63" y="-233.69" font-family="Helvetica,sans-Serif" font-size="10.00" fill="white">tracking</text>
</g>
<!-- dupont_qspr_spine&#45;&gt;dupont_qspr_tracking -->
<g id="edge36" class="edge">
<title>dupont_qspr_spine&#45;&gt;dupont_qspr_tracking</title><style>.edge>path:hover{stroke-width:8}</style>
<path fill="none" stroke="black" d="M286.67,-180.43C293.31,-189.32 301.53,-200.31 308.93,-210.21"/>
<polygon fill="blue" stroke="black" points="305.99,-212.13 314.78,-218.05 311.6,-207.94 305.99,-212.13"/>
</g>
<!-- dupont_qspr_splits -->
<g id="node17" class="node">
<title>dupont_qspr_splits</title><style>.edge>path:hover{stroke-width:8}</style>
<polygon fill="blue" stroke="black" points="480.63,-108 426.63,-108 426.63,-72 480.63,-72 480.63,-108"/>
<text xml:space="preserve" text-anchor="middle" x="453.63" y="-86.12" font-family="Helvetica,sans-Serif" font-size="10.00" fill="white">splits</text>
</g>
<!-- dupont_qspr_splits_nested -->
<g id="node18" class="node">
<title>dupont_qspr_splits_nested</title><style>.edge>path:hover{stroke-width:8}</style>
<polygon fill="blue" stroke="black" points="521.38,-180 449.88,-180 449.88,-144 521.38,-144 521.38,-180"/>
<text xml:space="preserve" text-anchor="middle" x="485.63" y="-158.12" font-family="Helvetica,sans-Serif" font-size="10.00" fill="white">splits.nested</text>
</g>
<!-- dupont_qspr_splits&#45;&gt;dupont_qspr_splits_nested -->
<g id="edge33" class="edge">
<title>dupont_qspr_splits&#45;&gt;dupont_qspr_splits_nested</title><style>.edge>path:hover{stroke-width:8}</style>
<path fill="none" stroke="black" d="M461.54,-108.3C465.03,-115.93 469.21,-125.08 473.11,-133.6"/>
<polygon fill="blue" stroke="black" points="469.84,-134.88 477.18,-142.52 476.21,-131.97 469.84,-134.88"/>
</g>
<!-- dupont_qspr_splits_scaffold -->
<g id="node19" class="node">
<title>dupont_qspr_splits_scaffold</title><style>.edge>path:hover{stroke-width:8}</style>
<ellipse fill="#c24747" stroke="black" cx="447.63" cy="-237.57" rx="35.71" ry="21.57"/>
<text xml:space="preserve" text-anchor="middle" x="447.63" y="-239.32" font-family="Helvetica,sans-Serif" font-size="10.00" fill="#ffffff">splits.</text>
<text xml:space="preserve" text-anchor="middle" x="447.63" y="-228.07" font-family="Helvetica,sans-Serif" font-size="10.00" fill="#ffffff">scaffold</text>
</g>
<!-- dupont_qspr_splits&#45;&gt;dupont_qspr_splits_scaffold -->
<g id="edge34" class="edge">
<title>dupont_qspr_splits&#45;&gt;dupont_qspr_splits_scaffold</title><style>.edge>path:hover{stroke-width:8}</style>
<path fill="none" stroke="black" d="M448.22,-108.47C445.34,-118.71 442.09,-131.96 440.63,-144 438.2,-164.12 439.85,-186.8 442.15,-204.68"/>
<polygon fill="blue" stroke="black" points="438.66,-205.03 443.55,-214.43 445.59,-204.03 438.66,-205.03"/>
</g>
<!-- dupont_qspr_splits_nested&#45;&gt;dupont_qspr_config -->
<g id="edge7" class="edge">
<title>dupont_qspr_splits_nested&#45;&gt;dupont_qspr_config</title><style>.edge>path:hover{stroke-width:8}</style>
<path fill="none" stroke="black" d="M500.31,-180.22C512.01,-196.14 524.47,-219.78 511.63,-236.57"/>
<path fill="none" stroke="black" d="M511.63,-238.57C504.07,-248.45 503.26,-252.66 492.63,-259.13 444.52,-288.44 379.88,-301.91 339.24,-307.83"/>
<polygon fill="blue" stroke="black" points="338.88,-304.35 329.45,-309.17 339.83,-311.29 338.88,-304.35"/>
</g>
<!-- dupont_qspr_splits_nested&#45;&gt;dupont_qspr_contracts -->
<g id="edge15" class="edge">
<title>dupont_qspr_splits_nested&#45;&gt;dupont_qspr_contracts</title><style>.edge>path:hover{stroke-width:8}</style>
<path fill="none" stroke="black" d="M503.02,-180.42C516.72,-194.71 535.76,-215.9 549.63,-236.57"/>
<path fill="none" stroke="black" d="M549.63,-238.57C556.57,-248.9 559.89,-250.28 568.63,-259.13 592.72,-283.51 646.07,-285.4 624.63,-312.13"/>
<path fill="none" stroke="black" d="M624.63,-314.13C590.14,-357.13 425.82,-374.98 345.31,-381.23"/>
<polygon fill="blue" stroke="black" points="345.28,-377.73 335.57,-381.96 345.8,-384.71 345.28,-377.73"/>
</g>
<!-- dupont_qspr_splits_nested&#45;&gt;dupont_qspr_splits_scaffold -->
<g id="edge35" class="edge">
<title>dupont_qspr_splits_nested&#45;&gt;dupont_qspr_splits_scaffold</title><style>.edge>path:hover{stroke-width:8}</style>
<path fill="none" stroke="black" d="M476.63,-180.43C472.59,-188.25 467.71,-197.7 463.11,-206.6"/>
<polygon fill="blue" stroke="black" points="460.09,-204.82 458.61,-215.31 466.31,-208.04 460.09,-204.82"/>
</g>
<!-- dupont_qspr_tracking&#45;&gt;dupont_qspr_config -->
<g id="edge8" class="edge">
<title>dupont_qspr_tracking&#45;&gt;dupont_qspr_config</title><style>.edge>path:hover{stroke-width:8}</style>
<path fill="none" stroke="black" d="M322,-256C318.79,-264.43 314.86,-274.75 311.25,-284.24"/>
<polygon fill="blue" stroke="black" points="308.04,-282.82 307.76,-293.41 314.59,-285.31 308.04,-282.82"/>
</g>
</g>
</svg>
